<?xml version="1.0" encoding="iso-8859-1"?>
<!-- Uploaded to: SVG Repo, www.svgrepo.com, Generator: SVG Repo Mixer Tools -->
<svg fill="#000000" height="800px" width="800px" version="1.1" id="Layer_1" xmlns="http://www.w3.org/2000/svg" xmlns:xlink="http://www.w3.org/1999/xlink" 
	 viewBox="0 0 511.999 511.999" xml:space="preserve">
<g>
	<g>
		<path d="M255.996,74.889c-99.863,0-181.108,81.245-181.108,181.107c0,99.863,81.245,181.107,181.108,181.107
			s181.107-81.245,181.107-181.107S355.858,74.889,255.996,74.889z M239.728,266.86c0,6.477-5.25,11.727-11.727,11.727h-40.357
			v27.264h40.357c6.477,0,11.727,5.25,11.727,11.727s-5.25,11.727-11.727,11.727h-52.084c-6.477,0-11.727-5.25-11.727-11.727V266.86
			c0-6.477,5.25-11.727,11.727-11.727h40.357V206.15h-28.631v11.735c0,6.477-5.25,11.727-11.727,11.727s-11.727-5.25-11.727-11.727
			v-23.462c0-6.477,5.25-11.727,11.727-11.727h52.084c6.477,0,11.727,5.25,11.727,11.727V266.86z M347.809,317.577
			c0,6.477-5.25,11.727-11.727,11.727c-6.477,0-11.727-5.25-11.727-11.727v-38.991h-40.357c-6.477,0-11.727-5.25-11.727-11.727
			v-72.437c0-6.477,5.25-11.727,11.727-11.727s11.727,5.25,11.727,11.727v60.71h28.631v-60.71c0-6.477,5.25-11.727,11.727-11.727
			c6.477,0,11.727,5.25,11.727,11.727V317.577z"/>
	</g>
</g>
<g>
	<g>
		<path d="M470.394,116.053c-5.318-8.13-16.219-10.412-24.349-5.094c-8.13,5.317-10.411,16.219-5.094,24.349
			c23.466,35.88,35.868,77.615,35.868,120.692c0,121.761-99.06,220.82-220.82,220.82c-43.485,0-85.552-12.621-121.654-36.5
			c-0.536-0.354-1.086-0.672-1.644-0.96l4.511-0.664c5.307-0.781,9.7-3.862,12.341-8.077c2.142-3.418,3.135-7.581,2.5-11.886
			c-1.414-9.61-10.351-16.254-19.963-14.842l-14.926,2.196l-28.151,4.142c-4.736,0.697-8.983,3.294-11.762,7.191
			c-2.779,3.897-3.85,8.759-2.964,13.463l9.167,48.734c1.589,8.449,8.972,14.342,17.267,14.342c1.079,0,2.173-0.1,3.272-0.306
			c9.548-1.797,15.831-10.991,14.036-20.539l-0.31-1.648c41.249,26.524,88.982,40.534,138.28,40.534
			c68.38,0,132.667-26.629,181.02-74.98c48.353-48.351,74.98-112.639,74.98-181.02C512,206.064,497.613,157.672,470.394,116.053z
			 M112.27,442.488l-0.022-0.118l0.183-0.027C112.379,442.393,112.322,442.436,112.27,442.488z"/>
	</g>
</g>
<g>
	<g>
		<path d="M437.635,71.454l-7.546-39.193c-1.836-9.54-11.062-15.786-20.598-13.948c-9.54,1.836-15.784,11.059-13.948,20.598
			l0.537,2.79C354.427,14.42,306.012,0,256,0C187.62,0,123.333,26.629,74.98,74.98C26.629,123.333,0,187.62,0,256
			c0,47.134,12.922,93.208,37.367,133.241c3.315,5.429,9.101,8.426,15.029,8.426c3.125,0,6.289-0.833,9.15-2.58
			c8.291-5.062,10.908-15.888,5.845-24.179C46.319,336.397,35.18,296.662,35.18,256c0-121.76,99.06-220.82,220.82-220.82
			c43.405,0,85.406,12.578,121.464,36.375c0.773,0.51,1.578,0.93,2.395,1.304l-6.142,2.607c-3.753,1.592-6.651,4.344-8.488,7.652
			c-2.54,4.573-3.036,10.221-0.834,15.411c2.843,6.701,9.353,10.724,16.2,10.724c2.291,0,4.62-0.45,6.864-1.403l6.495-2.757
			l33.28-14.121C434.869,87.732,439.204,79.598,437.635,71.454z"/>
	</g>
</g>
</svg>