<?xml version="1.0" encoding="UTF-8" standalone="no"?>
<!-- Filename: d9a61e7c7709c89cdb38fc523dbb6214dfe00cddbf4a3229012b81d1ab255612.svg -->
<!-- Created with https://svgstud.io -->
<svg
  version="1.1"
  xmlns="http://www.w3.org/2000/svg"
  xmlns:xlink="http://www.w3.org/1999/xlink"
  xmlns:svg="http://www.w3.org/2000/svg"
  xmlns:rdf="http://www.w3.org/1999/02/22-rdf-syntax-ns#"
  xmlns:cc="http://creativecommons.org/ns#"
  xmlns:dc="http://purl.org/dc/elements/1.1/"
  viewBox="0 0 768 768"
  width="768"
  height="768"
  role="img"
  aria-labelledby="titleID descID"
>
  <title id="titleID">network graph vizualization where nodes are people, abstract and clean</title>
  <desc id="descID">AI-generated SVG illustration: network graph vizualization where nodes are people, abstract and clean, created on https://svgstud.io</desc>

  <rect width="100%" height="100%" fill="white" />

  <metadata>
    Created by https://svgstud.io and licensed under CC-BY-SA 4.0 license. Please attribute https://svgstud.io
  </metadata>
  <metadata>
    network graph vizualization where nodes are people, abstract and clean
  </metadata>
  <metadata>
    7
  </metadata>
  <metadata>
    <rdf:RDF
      xmlns:rdf="http://www.w3.org/1999/02/22-rdf-syntax-ns#"
      xmlns:cc="http://creativecommons.org/ns#"
      xmlns:dc="http://purl.org/dc/elements/1.1/"
    >
      <cc:Work rdf:about="">
        <cc:license rdf:resource="http://creativecommons.org/licenses/by-sa/4.0/" />
        <dc:creator>
          <cc:Agent>
            <dc:title>https://svgstud.io</dc:title>
          </cc:Agent>
        </dc:creator>
      </cc:Work>
      <cc:License rdf:about="http://creativecommons.org/licenses/by-sa/4.0/">
        <cc:permits rdf:resource="http://creativecommons.org/ns#Reproduction" />
        <cc:permits rdf:resource="http://creativecommons.org/ns#Distribution" />
        <cc:requires rdf:resource="http://creativecommons.org/ns#Notice" />
        <cc:requires rdf:resource="http://creativecommons.org/ns#Attribution" />
        <cc:permits rdf:resource="http://creativecommons.org/ns#DerivativeWorks" />
        <cc:requires rdf:resource="http://creativecommons.org/ns#ShareAlike" />
      </cc:License>
    </rdf:RDF>
  </metadata>
  <metadata id="uid">d9a61e7c7709c89cdb38fc523dbb6214dfe00cddbf4a3229012b81d1ab255612</metadata>

  <path stroke="none" fill="black" fill-rule="evenodd" d="M382.73,630.54C378.85,630.82 374.46,630.42 371.10,629.48C368.14,628.65 363.48,626.75 360.75,625.27C358.02,623.78 353.84,620.85 351.45,618.75C349.07,616.65 345.92,612.48 344.45,609.49C342.99,606.51 341.03,601.01 340.10,597.28C338.41,590.50 338.41,590.50 332.95,588.84C329.95,587.92 321.71,585.78 314.63,584.07C301.77,580.96 301.77,580.96 297.48,584.91C295.13,587.08 291.24,589.89 288.85,591.15C285.58,592.87 282.87,593.43 277.92,593.41C272.64,593.40 270.46,592.87 266.84,590.75C264.36,589.30 260.74,586.34 258.79,584.19C256.84,582.03 254.68,578.58 254.00,576.51C253.32,574.45 252.99,570.68 253.26,568.13C253.54,565.59 254.05,562.81 254.40,561.97C254.85,560.90 251.74,557.50 243.77,550.37C237.57,544.83 227.29,535.33 220.91,529.27C214.54,523.21 208.39,517.74 207.23,517.13C205.64,516.27 203.71,516.37 199.09,517.56C194.35,518.77 191.84,518.89 187.56,518.10C184.55,517.54 180.36,516.20 178.25,515.13C176.14,514.05 172.61,511.21 170.40,508.82C168.19,506.42 165.51,502.98 164.44,501.16C162.50,497.85 162.50,497.85 155.99,498.50C152.41,498.86 147.94,499.47 146.06,499.85C143.11,500.46 142.20,501.42 139.41,506.88C137.64,510.36 134.90,514.56 133.34,516.23C131.78,517.89 128.70,520.09 126.50,521.10C124.30,522.12 120.92,522.97 118.99,522.98C117.06,522.99 113.95,522.56 112.08,522.02C110.21,521.49 106.92,519.83 104.77,518.34C102.63,516.86 99.81,513.81 98.51,511.57C97.21,509.33 95.84,505.79 95.46,503.71C94.99,501.14 95.29,498.54 96.39,495.65C97.28,493.31 99.77,489.68 101.91,487.59C104.27,485.28 107.92,483.09 111.15,482.04C116.50,480.30 116.50,480.30 117.50,407.40C118.05,367.30 118.28,327.59 118.00,319.14C117.50,303.77 117.50,303.77 112.42,301.88C109.63,300.84 105.57,298.47 103.39,296.60C101.22,294.74 98.11,290.81 96.49,287.86C94.14,283.58 93.55,281.29 93.56,276.50C93.58,272.63 94.24,269.26 95.43,267.00C96.44,265.07 98.58,261.84 100.18,259.80C101.78,257.77 105.43,254.98 108.29,253.60C111.26,252.18 116.28,250.83 119.96,250.48C123.52,250.14 126.73,249.67 127.10,249.44C127.47,249.21 128.05,247.92 128.39,246.58C128.73,245.24 130.56,241.52 132.46,238.32C134.36,235.12 136.60,230.85 137.44,228.82C138.96,225.16 138.95,225.13 135.33,220.82C133.33,218.45 130.81,214.52 129.73,212.10C128.30,208.89 127.93,206.51 128.37,203.34C128.69,200.95 129.83,197.29 130.90,195.20C131.96,193.12 134.82,189.58 137.25,187.34C139.68,185.10 143.38,182.70 145.48,182.01C147.72,181.27 151.81,180.95 155.42,181.24C158.80,181.51 163.42,182.68 165.69,183.84C167.97,185.00 171.41,187.89 173.36,190.26C175.30,192.63 177.36,195.82 177.94,197.35C178.52,198.88 179.00,202.48 179.00,205.35C179.00,208.59 178.24,212.06 177.02,214.47C175.92,216.61 175.14,218.46 175.27,218.59C175.39,218.71 183.82,221.37 194.00,224.50C204.18,227.63 223.29,233.78 236.47,238.16C249.66,242.54 261.02,246.60 261.72,247.18C262.42,247.77 263.00,248.64 263.00,249.12C263.00,249.61 261.67,250.00 260.05,250.00C258.42,250.00 247.06,246.68 234.80,242.63C222.53,238.57 203.69,232.50 192.92,229.13C182.15,225.76 172.70,223.01 171.92,223.03C171.14,223.05 168.54,224.76 166.13,226.83C161.77,230.61 161.77,230.61 166.28,243.55C168.77,250.67 173.16,262.80 176.04,270.50C178.92,278.20 182.96,289.45 185.02,295.50C188.76,306.50 188.76,306.50 198.63,307.12C204.06,307.47 210.49,308.49 212.93,309.39C215.37,310.30 218.90,312.21 220.77,313.64C223.57,315.77 224.59,316.05 226.44,315.21C227.69,314.64 234.51,309.26 241.60,303.25C248.70,297.25 255.09,291.61 255.81,290.74C256.91,289.41 256.84,288.59 255.41,285.83C254.47,284.01 253.49,279.55 253.23,275.93C252.86,270.77 253.19,268.38 254.74,264.92C255.83,262.49 258.62,258.20 260.93,255.39C263.74,251.96 266.42,249.85 269.05,248.98C271.21,248.27 273.67,246.91 274.53,245.96C275.88,244.47 275.96,242.70 275.14,233.08C274.61,226.94 273.66,221.29 273.02,220.52C272.38,219.76 270.60,218.85 269.05,218.51C267.50,218.17 264.32,216.26 261.99,214.26C259.65,212.26 257.12,209.15 256.37,207.34C255.62,205.54 255.00,202.23 255.00,199.99C255.00,197.75 255.89,194.18 256.97,192.06C258.06,189.93 260.58,186.85 262.58,185.20C264.58,183.55 268.20,181.65 270.62,180.97C273.20,180.24 276.98,180.00 279.73,180.38C282.31,180.73 286.14,181.92 288.24,183.01C290.34,184.10 292.46,185.00 292.95,185.00C293.44,185.00 298.97,179.71 305.25,173.25C311.53,166.79 323.49,154.17 331.83,145.21C340.17,136.24 347.00,128.34 347.00,127.65C347.00,126.96 345.37,124.84 343.38,122.95C341.39,121.05 338.69,117.25 337.39,114.50C336.05,111.68 335.02,107.63 335.01,105.21C335.00,102.83 335.94,99.05 337.11,96.71C338.26,94.39 340.85,90.77 342.86,88.67C344.86,86.56 348.12,83.99 350.10,82.97C352.09,81.95 355.96,80.81 358.72,80.44C362.11,79.99 365.49,80.29 369.20,81.37C372.67,82.38 376.39,84.47 379.38,87.10C381.97,89.38 384.91,92.88 385.92,94.87C386.93,96.87 388.07,99.96 388.45,101.73C388.89,103.75 388.54,107.07 387.54,110.52C386.56,113.87 384.51,117.64 382.38,120.00C380.43,122.16 378.99,124.55 379.17,125.31C379.35,126.08 389.05,133.09 400.72,140.90C412.39,148.71 422.22,155.54 422.55,156.08C422.89,156.63 425.21,155.57 427.83,153.68C430.40,151.82 434.03,149.78 435.90,149.15C437.77,148.52 441.85,148.00 444.97,148.00C448.09,148.00 453.04,148.72 455.99,149.59C460.08,150.80 462.69,152.53 467.08,156.92C471.47,161.31 473.20,163.92 474.41,168.01C475.28,170.96 476.00,174.56 476.00,176.03C476.00,177.50 475.47,180.23 474.83,182.10C474.19,183.97 472.54,187.21 471.17,189.29C469.69,191.54 469.05,193.44 469.59,193.96C470.09,194.44 477.70,197.74 486.50,201.29C495.30,204.83 510.82,210.98 521.00,214.96C531.17,218.93 542.23,223.62 545.56,225.37C551.63,228.57 551.63,228.57 556.57,226.54C559.28,225.42 562.07,224.14 562.75,223.69C563.55,223.18 564.00,220.41 564.00,216.10C564.00,212.37 563.70,203.15 563.34,195.61C562.69,181.91 562.69,181.91 557.09,179.27C554.02,177.81 549.21,174.33 546.40,171.53C542.80,167.93 540.77,164.83 539.48,160.97C538.42,157.77 537.73,153.05 537.82,149.61C537.92,145.84 538.82,141.89 540.33,138.61C541.62,135.80 544.88,131.32 547.59,128.65C550.29,125.98 554.75,122.61 557.50,121.16C561.76,118.92 563.76,118.53 571.00,118.51C578.37,118.50 580.29,118.89 585.39,121.39C588.64,122.99 593.06,126.06 595.23,128.23C597.40,130.40 600.25,134.50 601.58,137.34C603.40,141.25 603.98,144.22 603.99,149.59C604.00,155.50 603.49,157.69 600.96,162.76C599.29,166.10 596.23,170.33 594.15,172.17C592.07,174.00 589.05,176.46 587.43,177.62C584.50,179.75 584.50,179.75 594.38,199.62C599.81,210.56 606.56,224.27 609.38,230.10C614.50,240.70 614.50,240.70 621.99,241.88C627.18,242.69 631.12,244.04 634.81,246.27C637.74,248.05 641.26,250.96 642.62,252.75C643.99,254.54 645.75,257.56 646.55,259.47C647.35,261.38 648.00,265.54 647.99,268.72C647.98,272.72 647.25,276.04 645.61,279.50C644.30,282.25 641.04,286.61 638.37,289.20C635.69,291.78 631.48,294.81 629.00,295.93C626.10,297.23 622.36,297.96 618.50,297.97C614.18,297.98 611.00,297.28 607.12,295.48C602.98,293.55 601.42,293.23 600.36,294.12C599.60,294.75 596.27,299.74 592.96,305.22C589.65,310.70 586.84,315.99 586.72,316.98C586.58,318.14 588.25,319.95 591.49,322.13C594.23,323.99 598.22,328.03 600.34,331.13C603.45,335.66 604.41,338.21 605.28,344.21C606.11,350.01 606.06,352.72 605.04,356.37C604.31,358.95 601.96,363.58 599.81,366.64C595.91,372.22 595.91,372.22 598.84,379.36C600.45,383.29 604.31,394.15 607.41,403.50C610.51,412.85 616.07,429.27 619.78,440.00C626.52,459.50 626.52,459.50 632.51,460.12C635.80,460.47 639.84,461.28 641.47,461.93C643.10,462.58 646.33,464.67 648.65,466.57C651.06,468.54 654.02,472.38 655.55,475.52C657.80,480.12 658.17,481.98 657.81,487.00C657.45,491.98 656.70,493.96 653.44,498.62C650.85,502.32 647.51,505.47 643.69,507.81C638.65,510.90 637.06,511.37 631.69,511.34C628.18,511.32 623.79,510.58 621.55,509.62C619.38,508.69 615.29,506.15 612.46,503.97C609.63,501.79 606.96,500.00 606.53,500.00C606.10,500.00 603.36,501.36 600.46,503.03C595.17,506.05 595.17,506.05 597.19,511.78C598.62,515.84 599.05,518.88 598.65,522.25C598.34,524.86 597.24,528.91 596.19,531.25C595.14,533.59 592.40,537.61 590.10,540.19C587.74,542.85 583.45,546.11 580.21,547.69C575.53,549.99 573.23,550.49 567.50,550.43C562.00,550.38 559.41,549.80 555.39,547.74C552.58,546.29 547.75,542.80 544.67,539.98C539.06,534.85 539.06,534.85 510.28,550.11C494.45,558.50 474.98,568.81 467.00,573.01C459.02,577.22 445.52,584.39 437.00,588.96C428.48,593.52 420.93,597.71 420.23,598.27C419.53,598.83 417.11,602.82 414.86,607.14C412.14,612.37 408.97,616.65 405.38,619.93C402.42,622.64 397.51,626.03 394.48,627.47C391.08,629.07 386.56,630.26 382.73,630.54zM422.65,590.00C424.09,590.00 426.67,589.15 428.38,588.11C430.10,587.07 441.85,580.83 454.50,574.24C467.15,567.66 484.02,558.74 492.00,554.43C499.98,550.11 512.54,543.41 519.93,539.54C527.31,535.67 533.51,532.01 533.71,531.40C533.92,530.77 530.58,529.40 525.78,528.16C521.23,526.98 510.07,524.22 501.00,522.03C491.93,519.84 472.80,514.87 458.50,510.99C444.20,507.11 428.68,502.80 424.00,501.41C419.32,500.02 411.27,497.53 406.10,495.87C396.69,492.86 396.69,492.86 389.51,495.18C382.32,497.50 382.32,497.50 381.69,523.26C381.32,538.35 381.44,550.03 381.99,551.46C382.65,553.21 384.12,554.20 387.21,554.98C389.57,555.58 393.72,557.06 396.42,558.28C399.13,559.50 403.09,561.88 405.21,563.56C407.34,565.24 410.62,568.78 412.50,571.44C414.39,574.09 416.59,578.11 417.40,580.38C418.20,582.65 419.13,585.74 419.45,587.25C419.91,589.40 420.61,590.00 422.65,590.00zM338.50,583.59C339.05,583.46 340.70,581.17 342.17,578.49C343.63,575.80 346.64,571.51 348.85,568.95C351.06,566.38 355.33,562.65 358.33,560.65C361.34,558.66 366.39,556.35 369.55,555.53C372.71,554.70 375.50,553.83 375.75,553.59C375.99,553.34 376.24,551.87 376.29,550.32C376.35,548.77 376.31,536.20 376.20,522.38C376.00,497.27 376.00,497.27 370.14,495.13C366.92,493.96 362.17,491.38 359.58,489.40C354.88,485.81 354.88,485.81 351.19,488.40C349.16,489.82 344.57,493.24 341.00,496.01C337.43,498.78 329.10,505.14 322.50,510.13C315.90,515.13 309.35,519.63 307.95,520.14C306.07,520.81 305.09,522.20 304.24,525.41C303.60,527.80 301.88,531.17 300.43,532.90C298.98,534.63 295.86,537.17 293.50,538.55C291.15,539.93 288.95,542.06 288.62,543.28C288.29,544.50 288.02,546.05 288.01,546.73C288.01,547.41 289.69,548.82 291.75,549.88C293.81,550.94 296.48,552.86 297.69,554.15C298.89,555.44 300.79,558.52 301.92,561.00C303.10,563.61 303.97,567.65 303.98,570.61C304.00,575.72 304.00,575.72 315.75,578.45C322.21,579.95 329.75,581.77 332.50,582.50C335.25,583.22 337.95,583.71 338.50,583.59zM258.13,554.99C259.02,554.99 260.31,554.33 260.99,553.51C261.67,552.69 263.84,551.02 265.82,549.80C267.80,548.58 271.24,547.34 273.46,547.04C277.38,546.52 277.51,546.38 277.80,542.36C278.08,538.59 277.80,538.04 274.67,536.10C272.78,534.94 270.67,532.63 269.99,530.97C269.28,529.27 268.97,526.00 269.26,523.41C269.61,520.26 270.63,517.96 272.53,515.97C274.05,514.39 276.75,512.40 278.54,511.55C280.34,510.70 283.66,510.00 285.93,510.00C288.21,510.00 291.74,510.70 293.78,511.55C295.83,512.41 298.68,514.24 300.12,515.62C302.75,518.13 302.75,518.13 312.30,510.82C317.55,506.79 327.89,498.89 335.27,493.25C342.65,487.61 349.49,482.12 350.46,481.04C351.94,479.41 352.05,478.58 351.11,475.90C350.50,474.14 350.02,470.63 350.04,468.10C350.07,465.57 350.78,461.70 351.63,459.50C352.47,457.30 353.39,454.58 353.66,453.47C354.02,451.97 353.21,450.78 350.58,448.97C348.62,447.61 340.60,442.11 332.76,436.75C324.92,431.38 317.72,427.00 316.76,427.00C315.80,427.00 313.08,428.48 310.70,430.29C308.33,432.10 303.94,434.67 300.94,435.98C296.74,437.84 293.68,438.39 287.50,438.43C281.62,438.47 277.71,437.87 272.74,436.16C269.01,434.88 263.63,432.07 260.76,429.91C257.90,427.76 255.01,426.00 254.34,426.00C253.68,426.00 250.24,428.36 246.71,431.25C243.18,434.14 233.81,442.29 225.89,449.37C217.98,456.45 211.13,462.89 210.67,463.68C210.08,464.69 211.21,466.59 214.48,470.08C217.03,472.81 219.83,476.72 220.70,478.77C221.67,481.05 222.27,485.32 222.26,489.76C222.24,493.76 222.61,497.26 223.07,497.54C223.53,497.83 233.27,501.01 244.71,504.61C256.14,508.20 266.53,511.81 267.78,512.62C269.04,513.43 269.80,514.52 269.47,515.04C269.15,515.57 268.01,516.00 266.95,516.00C265.89,516.00 260.63,514.62 255.26,512.93C249.89,511.24 239.67,508.02 232.55,505.76C219.61,501.66 219.61,501.66 215.36,506.49C212.05,510.26 211.31,511.71 212.03,513.07C212.55,514.02 218.26,519.73 224.73,525.76C231.20,531.78 241.00,540.82 246.50,545.84C252.00,550.87 257.23,554.98 258.13,554.99zM534.00,524.64C534.89,524.54 535.85,522.85 536.35,520.49C536.82,518.30 537.85,514.66 538.63,512.40C539.41,510.15 541.61,506.47 543.53,504.24C545.44,502.01 547.00,499.78 547.00,499.29C547.00,498.81 545.16,496.63 542.91,494.45C540.66,492.28 529.98,480.82 519.18,469.00C508.38,457.18 496.13,443.96 491.95,439.64C484.37,431.78 484.37,431.78 475.71,430.50C469.51,429.59 465.75,428.42 462.43,426.36C459.88,424.79 456.46,422.65 454.82,421.61C451.88,419.75 451.81,419.75 449.17,421.83C447.70,422.99 437.73,430.11 427.00,437.65C416.27,445.18 407.20,451.80 406.83,452.36C406.45,452.92 406.98,455.00 407.99,456.98C409.00,458.97 410.14,462.25 410.52,464.27C410.90,466.29 410.68,470.16 410.03,472.88C409.38,475.59 407.30,480.20 405.42,483.13C403.53,486.06 402.14,488.92 402.32,489.48C402.51,490.04 410.28,492.60 419.58,495.16C428.89,497.72 443.02,501.67 451.00,503.95C458.98,506.23 473.38,510.06 483.00,512.48C492.62,514.89 507.70,518.65 516.50,520.83C525.30,523.01 533.17,524.72 534.00,524.64zM592.35,499.96C593.37,499.98 596.38,498.78 599.03,497.29C603.86,494.58 603.86,494.58 603.32,490.04C603.03,487.54 603.28,483.67 603.88,481.44C604.48,479.21 606.37,475.27 608.09,472.69C609.80,470.10 612.97,466.75 615.13,465.24C617.30,463.74 619.76,462.03 620.60,461.46C621.93,460.57 621.05,457.13 613.96,435.46C609.46,421.73 603.53,403.98 600.78,396.00C598.04,388.02 595.15,380.49 594.37,379.25C593.59,378.01 592.34,377.00 591.60,377.00C590.85,377.00 587.82,378.08 584.87,379.41C581.92,380.74 577.63,382.12 575.34,382.48C571.18,383.14 571.18,383.14 570.84,388.12C570.65,390.85 570.65,415.04 570.82,441.88C571.15,490.67 571.15,490.67 576.82,492.40C579.95,493.35 584.30,495.43 586.50,497.02C588.70,498.61 591.33,499.94 592.35,499.96zM552.00,495.58C552.83,495.32 556.77,493.90 560.77,492.42C568.03,489.72 568.03,489.72 567.93,438.11C567.88,409.72 567.48,385.60 567.03,384.50C566.55,383.28 564.13,381.77 560.87,380.63C557.91,379.61 553.33,377.18 550.68,375.25C548.03,373.31 544.08,369.31 541.90,366.36C539.72,363.41 537.71,361.00 537.44,361.00C537.16,361.00 534.81,362.08 532.22,363.40C529.62,364.71 522.55,368.79 516.50,372.45C510.45,376.12 504.91,379.70 504.18,380.41C503.09,381.48 503.43,382.78 506.10,387.88C508.68,392.80 509.33,395.24 509.33,399.93C509.33,404.29 508.63,407.23 506.61,411.37C504.79,415.09 501.52,419.10 496.80,423.41C489.72,429.87 489.72,429.87 500.11,441.12C505.82,447.31 517.25,459.61 525.50,468.46C533.75,477.31 542.75,487.14 545.50,490.30C548.58,493.83 551.08,495.86 552.00,495.58zM141.00,494.98C141.28,494.99 145.42,494.36 150.21,493.58C155.01,492.80 159.34,491.91 159.85,491.59C160.35,491.28 161.09,488.89 161.48,486.29C161.87,483.68 163.05,479.86 164.10,477.80C165.15,475.74 167.39,472.49 169.07,470.57C170.75,468.66 174.87,465.72 178.22,464.05C181.58,462.37 185.71,460.99 187.41,460.98C189.11,460.98 191.18,460.54 192.00,460.02C193.29,459.21 193.50,453.79 193.50,421.35C193.50,383.62 193.50,383.62 187.78,381.92C184.63,380.99 180.06,379.05 177.63,377.63C175.19,376.20 171.36,372.94 169.11,370.39C166.86,367.83 163.88,363.42 162.49,360.57C160.98,357.48 159.71,352.74 159.34,348.78C158.97,344.83 159.21,340.20 159.92,337.33C160.57,334.67 163.17,329.37 165.70,325.54C169.89,319.19 170.14,318.50 168.52,317.54C167.54,316.97 164.21,314.67 161.12,312.44C158.03,310.20 151.77,305.82 147.20,302.70C138.90,297.02 138.90,297.02 134.18,299.41C131.59,300.72 127.60,302.30 125.32,302.91C121.17,304.03 121.17,304.03 120.53,311.27C120.19,315.24 120.04,354.89 120.20,399.36C120.50,480.22 120.50,480.22 125.75,482.18C129.57,483.61 132.29,485.61 135.75,489.56C138.36,492.54 140.72,494.98 141.00,494.98zM202.65,462.00C203.43,462.00 208.88,457.61 214.78,452.24C220.68,446.87 230.79,437.85 237.25,432.18C243.71,426.52 249.00,421.28 249.00,420.53C249.00,419.79 247.76,416.80 246.25,413.89C243.76,409.08 243.50,407.59 243.50,398.04C243.50,389.27 243.86,386.80 245.63,383.32C246.80,381.02 248.75,377.53 249.96,375.56C252.17,371.99 252.17,371.99 245.83,369.15C242.35,367.59 237.77,365.69 235.67,364.92C231.83,363.54 231.83,363.54 226.67,369.19C223.82,372.30 219.70,375.99 217.50,377.38C215.30,378.77 210.35,380.73 206.50,381.73C199.50,383.55 199.50,383.55 199.24,421.41C199.05,448.52 199.30,459.65 200.11,460.63C200.73,461.38 201.88,462.00 202.65,462.00zM402.05,448.00C402.38,448.00 410.04,442.80 419.08,436.44C428.11,430.09 438.53,422.78 442.22,420.19C445.92,417.61 449.21,414.73 449.53,413.80C449.84,412.86 449.35,410.64 448.43,408.86C447.30,406.69 446.79,403.45 446.88,399.06C446.97,393.99 447.67,391.14 449.95,386.50C451.58,383.20 452.59,380.20 452.20,379.83C451.82,379.46 440.40,373.27 426.83,366.08C413.27,358.89 401.64,353.00 400.99,353.00C400.34,353.00 397.83,354.74 395.41,356.87C392.99,359.00 388.64,361.60 385.75,362.64C380.50,364.52 380.50,364.52 380.50,400.97C380.50,437.41 380.50,437.41 388.34,440.07C392.76,441.57 397.33,443.88 398.82,445.36C400.27,446.81 401.72,448.00 402.05,448.00zM357.90,447.00C358.69,447.00 360.15,446.27 361.14,445.37C362.13,444.48 365.76,442.31 369.22,440.54C375.50,437.33 375.50,437.33 375.76,401.19C376.02,365.04 376.02,365.04 370.16,362.08C366.94,360.45 362.99,358.04 361.40,356.71C359.80,355.38 357.57,353.81 356.44,353.22C354.67,352.29 352.27,353.47 339.44,361.56C331.22,366.74 323.88,371.37 323.13,371.85C322.02,372.55 322.51,374.25 325.63,380.56C329.22,387.84 329.50,389.01 329.50,397.07C329.50,405.15 329.24,406.23 325.75,412.92C323.69,416.87 322.00,420.70 322.00,421.43C322.00,422.16 324.90,424.65 328.44,426.96C331.98,429.27 339.73,434.72 345.67,439.08C351.60,443.43 357.11,447.00 357.90,447.00zM498.70,376.99C498.81,377.00 501.74,375.05 505.20,372.66C508.67,370.27 516.55,365.30 522.72,361.61C528.89,357.93 534.18,354.52 534.47,354.05C534.76,353.57 535.38,350.39 535.85,346.98C536.70,340.77 536.70,340.77 533.60,339.50C531.90,338.80 526.23,337.07 521.00,335.66C515.77,334.25 504.83,331.44 496.67,329.41C481.84,325.73 481.84,325.73 476.42,331.08C472.68,334.77 471.00,337.22 471.01,338.97C471.01,340.36 472.14,347.54 473.51,354.92C474.88,362.30 476.18,368.52 476.40,368.74C476.62,368.95 479.78,369.76 483.41,370.52C487.05,371.28 491.93,373.04 494.26,374.44C496.59,375.84 498.59,376.99 498.70,376.99zM455.48,375.93C456.02,375.97 459.49,374.54 463.19,372.75C466.90,370.96 470.13,369.00 470.38,368.38C470.63,367.76 469.69,361.24 468.28,353.88C466.88,346.52 465.29,339.94 464.74,339.25C464.13,338.48 461.27,338.00 457.27,338.00C452.37,338.00 449.53,337.38 445.65,335.48C442.82,334.10 438.48,330.74 436.00,328.02C431.50,323.08 431.50,323.08 421.00,325.54C415.23,326.89 409.49,328.44 408.25,328.98C406.41,329.78 406.00,330.75 406.00,334.35C406.00,336.77 405.37,340.54 404.60,342.72C403.83,344.91 403.49,347.14 403.85,347.68C404.21,348.22 413.50,353.30 424.50,358.98C435.50,364.66 446.75,370.78 449.50,372.58C452.25,374.38 454.94,375.89 455.48,375.93zM258.48,367.27C259.04,366.96 260.85,365.71 262.50,364.50C264.15,363.28 267.52,361.24 270.00,359.95C272.48,358.67 276.98,357.10 280.00,356.48C285.50,355.35 285.50,355.35 285.76,348.92C285.90,345.39 285.68,333.96 285.26,323.51C284.50,304.52 284.50,304.52 279.20,303.76C276.29,303.34 270.79,301.39 266.98,299.42C262.88,297.30 259.54,296.16 258.78,296.61C258.08,297.04 251.51,302.51 244.19,308.78C236.86,315.05 230.65,320.74 230.38,321.44C230.12,322.14 231.33,325.01 233.08,327.82C235.62,331.92 236.36,334.35 236.76,339.96C237.07,344.19 236.76,348.79 235.98,351.56C234.82,355.73 234.87,356.31 236.60,357.98C237.64,358.99 242.04,361.21 246.37,362.92C250.70,364.64 254.97,366.44 255.85,366.94C256.73,367.43 257.92,367.58 258.48,367.27zM317.56,367.98C318.14,367.99 320.16,366.85 322.06,365.43C323.95,364.02 331.49,359.25 338.82,354.83C346.15,350.41 352.31,346.28 352.51,345.65C352.71,345.02 353.03,340.10 353.23,334.73C353.59,324.96 353.59,324.96 330.05,312.83C317.10,306.15 305.17,300.01 303.55,299.17C300.74,297.72 300.32,297.80 295.05,300.73C289.50,303.82 289.50,303.82 289.19,319.66C289.01,328.37 289.17,340.11 289.53,345.74C290.19,355.97 290.19,355.97 294.35,357.02C296.63,357.60 300.30,358.82 302.50,359.73C304.70,360.64 308.75,362.86 311.50,364.67C314.25,366.48 316.98,367.97 317.56,367.98zM537.70,334.91C538.37,334.96 539.72,333.78 540.70,332.29C541.69,330.80 544.65,327.46 547.29,324.86C549.92,322.26 554.20,319.13 556.79,317.89C559.38,316.65 561.83,315.16 562.23,314.57C562.64,313.98 562.98,310.08 562.98,305.91C562.99,301.73 562.71,292.27 562.36,284.89C561.71,271.46 561.71,271.46 553.76,267.18C546.53,263.29 545.61,263.02 543.65,264.30C542.47,265.08 528.45,273.01 512.50,281.94C496.55,290.86 482.90,298.75 482.16,299.46C481.04,300.54 481.11,301.31 482.56,304.12C483.52,305.97 484.52,310.51 484.78,314.22C485.14,319.26 485.67,321.08 486.88,321.46C487.77,321.73 495.48,323.76 504.00,325.95C512.52,328.14 523.33,331.04 528.00,332.38C532.67,333.73 537.04,334.87 537.70,334.91zM401.65,324.00C401.86,324.00 408.19,322.41 415.72,320.46C423.25,318.51 429.49,316.83 429.59,316.71C429.69,316.59 430.69,313.15 431.80,309.05C433.83,301.60 433.83,301.60 429.26,297.58C426.75,295.37 415.59,283.20 404.47,270.53C393.34,257.86 382.84,246.18 381.13,244.57C379.42,242.96 377.76,241.91 377.44,242.23C377.11,242.55 377.35,256.25 377.96,272.66C378.57,289.07 379.30,303.99 379.59,305.80C379.89,307.69 380.83,309.34 381.81,309.65C382.74,309.95 386.33,311.54 389.79,313.18C394.26,315.30 396.83,317.30 398.67,320.08C400.10,322.24 401.44,324.00 401.65,324.00zM356.27,321.00C356.75,321.00 359.25,319.24 361.82,317.10C364.39,314.95 368.30,312.35 370.50,311.32C374.50,309.46 374.50,309.46 374.23,293.98C374.08,285.47 373.47,268.82 372.86,257.00C372.26,245.18 371.37,234.75 370.89,233.83C370.41,232.91 368.55,231.85 366.76,231.46C364.97,231.07 361.89,229.94 359.93,228.95C357.97,227.96 354.71,225.31 352.68,223.07C350.66,220.83 348.37,219.00 347.60,219.00C346.83,219.00 343.33,221.59 339.82,224.75C336.32,227.91 326.85,236.26 318.79,243.29C304.14,256.09 304.14,256.09 307.28,261.14C309.72,265.07 310.51,267.61 310.82,272.55C311.17,278.07 310.82,279.80 308.11,285.57C306.40,289.23 305.00,292.54 305.00,292.93C305.00,293.31 306.91,294.65 309.25,295.91C311.59,297.16 322.50,302.93 333.50,308.73C344.50,314.52 353.93,319.66 354.45,320.13C354.97,320.61 355.79,321.00 356.27,321.00zM173.38,314.90C173.86,314.96 176.66,313.62 179.61,311.94C182.55,310.25 185.19,308.50 185.47,308.05C185.75,307.59 185.12,305.26 184.07,302.86C183.01,300.46 177.15,284.83 171.03,268.12C164.92,251.40 159.27,236.50 158.49,234.99C157.71,233.48 156.45,232.00 155.69,231.71C154.93,231.42 151.83,230.87 148.80,230.49C143.34,229.81 143.26,229.84 141.24,233.15C140.11,234.99 137.79,239.26 136.09,242.62C134.39,245.99 133.01,249.59 133.03,250.62C133.05,251.74 134.77,253.54 137.28,255.06C139.61,256.47 143.25,260.16 145.41,263.30C148.94,268.43 149.32,269.58 149.27,275.09C149.22,279.90 148.55,282.44 146.11,287.10C143.01,293.02 143.01,293.02 149.70,297.76C153.38,300.37 160.01,305.27 164.44,308.65C168.87,312.03 172.90,314.85 173.38,314.90zM575.66,314.88C580.82,315.00 580.82,315.00 584.72,308.75C586.87,305.31 590.31,299.45 592.38,295.73C596.12,288.96 596.12,288.96 592.84,283.23C590.21,278.64 589.54,276.31 589.43,271.50C589.37,268.20 589.24,264.94 589.15,264.25C589.07,263.56 588.28,263.00 587.40,263.00C586.53,263.00 584.44,263.98 582.76,265.17C581.08,266.37 576.73,268.55 573.10,270.02C566.50,272.69 566.50,272.69 566.22,291.10C566.06,301.22 566.17,310.48 566.47,311.68C566.76,312.87 567.79,314.06 568.75,314.31C569.71,314.56 572.82,314.82 575.66,314.88zM436.50,298.00C437.15,298.00 438.55,297.05 439.59,295.90C440.64,294.74 443.45,292.65 445.84,291.25C449.58,289.06 450.12,288.33 449.67,286.10C449.39,284.67 448.63,277.88 447.99,271.00C447.34,264.12 445.95,251.34 444.89,242.59C443.84,233.83 442.47,226.07 441.86,225.34C441.25,224.60 439.26,224.00 437.43,224.00C435.60,224.00 429.24,223.06 423.30,221.91C417.36,220.77 408.68,219.20 404.00,218.43C399.32,217.66 394.75,217.03 393.84,217.02C392.93,217.01 390.59,219.23 388.63,221.95C386.68,224.67 383.26,227.93 381.05,229.20C378.83,230.46 377.01,232.13 377.01,232.89C377.00,233.65 381.17,238.60 386.27,243.89C391.37,249.18 398.23,256.44 401.52,260.04C404.81,263.64 413.76,273.66 421.40,282.29C429.05,290.93 435.84,298.00 436.50,298.00zM476.85,295.95C477.59,295.98 479.39,295.16 480.85,294.14C482.31,293.12 490.25,288.48 498.50,283.83C506.75,279.18 516.65,273.65 520.50,271.55C524.35,269.45 531.21,265.48 535.75,262.73C540.29,259.98 544.00,257.23 543.99,256.61C543.99,256.00 543.52,253.82 542.95,251.76C542.22,249.12 541.26,247.90 539.71,247.61C538.49,247.39 533.00,246.22 527.50,245.01C522.00,243.80 510.98,241.26 503.00,239.38C495.02,237.49 481.03,234.12 471.90,231.88C462.77,229.64 454.68,227.42 453.91,226.94C452.94,226.35 452.84,225.76 453.56,225.04C454.29,224.31 456.42,224.32 460.55,225.06C463.82,225.64 479.77,229.25 496.00,233.07C512.23,236.89 528.95,240.85 533.16,241.87C537.38,242.89 541.25,243.45 541.78,243.11C542.31,242.78 543.96,240.08 545.45,237.13C546.94,234.17 547.78,231.39 547.33,230.94C546.87,230.49 534.35,225.35 519.50,219.52C504.65,213.69 486.80,206.69 479.84,203.96C472.88,201.23 466.29,199.00 465.20,199.00C464.10,199.00 460.79,200.27 457.84,201.82C454.89,203.37 451.47,204.91 450.24,205.23C448.35,205.72 448.00,206.49 448.01,210.16C448.02,212.55 448.67,222.15 449.45,231.50C450.23,240.85 451.59,256.60 452.47,266.50C453.34,276.40 454.27,285.48 454.53,286.68C454.92,288.47 455.95,288.97 460.40,289.53C463.49,289.92 467.86,291.42 470.65,293.05C473.32,294.62 476.11,295.92 476.85,295.95zM592.79,256.00C593.59,256.00 596.05,253.96 598.25,251.46C600.44,248.96 604.01,246.01 606.17,244.91C608.33,243.81 610.35,242.26 610.65,241.47C610.95,240.69 608.39,234.74 604.95,228.27C601.52,221.80 594.92,209.30 590.29,200.50C585.66,191.70 581.20,183.98 580.38,183.35C579.52,182.69 577.14,182.42 574.70,182.72C572.39,183.01 569.87,183.83 569.11,184.55C567.95,185.64 567.87,189.04 568.61,204.67C569.50,223.49 569.50,223.49 574.75,225.37C577.64,226.40 581.99,229.00 584.43,231.14C587.04,233.45 589.54,236.84 590.54,239.45C591.90,243.02 592.04,244.93 591.26,249.42C590.74,252.48 590.54,255.21 590.82,255.49C591.10,255.77 591.99,256.00 592.79,256.00zM300.00,252.93C300.28,252.97 305.41,248.61 311.41,243.25C317.42,237.89 326.31,230.07 331.18,225.87C336.04,221.67 340.95,217.06 342.09,215.62C343.64,213.65 343.82,212.89 342.82,212.59C342.10,212.37 332.95,210.79 322.50,209.08C312.05,207.37 302.13,205.98 300.47,205.99C298.18,206.00 297.01,206.72 295.70,208.93C294.75,210.54 292.29,213.17 290.24,214.79C288.18,216.40 285.01,218.49 283.19,219.42C279.87,221.12 279.87,221.12 280.57,231.81C280.96,237.69 281.62,243.43 282.04,244.57C282.60,246.05 284.33,246.98 288.17,247.84C291.11,248.50 294.86,249.89 296.51,250.94C298.15,251.99 299.73,252.89 300.00,252.93zM438.46,219.80C441.50,219.50 441.50,219.50 441.19,213.03C441.02,209.48 440.38,205.95 439.75,205.20C439.13,204.46 436.57,202.76 434.06,201.44C431.55,200.11 427.62,197.62 425.32,195.89C421.15,192.75 421.15,192.75 413.82,195.81C409.80,197.49 403.96,200.03 400.85,201.46C397.74,202.89 394.65,204.71 393.99,205.51C393.32,206.32 393.03,208.00 393.35,209.25C393.87,211.35 395.46,211.81 414.21,215.36C425.37,217.47 434.71,219.40 434.96,219.65C435.22,219.89 436.79,219.96 438.46,219.80zM344.90,206.67C346.69,206.54 348.23,204.97 350.91,200.53C353.83,195.69 355.54,194.05 360.00,191.80C363.03,190.28 365.91,188.89 366.41,188.71C366.94,188.53 366.41,178.73 365.14,165.45C363.94,152.83 362.70,140.36 362.38,137.73C362.00,134.54 361.20,132.64 359.97,131.98C358.96,131.44 356.82,131.00 355.21,131.00C352.74,131.00 349.51,133.83 334.39,149.23C324.55,159.25 314.25,169.73 311.50,172.51C308.75,175.29 303.94,179.85 300.82,182.64C295.14,187.72 295.14,187.72 296.70,190.61C297.56,192.20 298.55,194.85 298.92,196.50C299.52,199.27 300.08,199.60 306.04,200.81C309.59,201.53 319.25,203.18 327.50,204.48C335.75,205.78 343.58,206.76 344.90,206.67zM391.48,199.00C392.14,199.00 397.98,196.56 404.46,193.58C410.94,190.60 416.65,187.75 417.16,187.24C417.71,186.69 417.67,185.25 417.04,183.60C416.47,182.10 416.01,178.54 416.02,175.68C416.03,172.70 416.88,168.65 418.02,166.14C419.11,163.74 419.99,161.27 419.98,160.64C419.96,160.01 415.58,156.60 410.23,153.05C404.88,149.50 394.66,142.86 387.52,138.30C380.38,133.73 373.60,130.00 372.46,130.00C371.32,130.00 369.59,130.58 368.61,131.29C366.92,132.53 366.93,133.44 368.91,151.54C370.05,161.97 371.28,174.49 371.65,179.37C372.31,188.25 372.31,188.25 377.41,190.52C380.21,191.76 384.25,194.18 386.39,195.89C388.53,197.60 390.82,199.00 391.48,199.00z" />

</svg>
